<svg xmlns="http://www.w3.org/2000/svg"><symbol id="twitter-icon" viewBox="0 0 196 196"><rect width="190.2" height="190.19" x="2.9" y="2.9" fill="#010101" rx="36.4"/><path fill="#fff" d="M97 78.4s-24.8 2-53.6-27.2c-5.1 6.4-6.9 23.9 8.1 34.7a53.5 53.5 0 0 1-11.8-3.3s-1.2 20.1 20.9 25.9a55.9 55.9 0 0 1-11.8.4S54 126.7 73.1 127c-3.9 2.8-16.7 12.9-38.5 10.8 4.8 2.8 22.8 11.9 39.9 11.6s71.6-7.9 73.9-77.3c2.8-2.2 12.8-10.7 13-13.5-2.8 1.2-13 4.8-14.9 4.1 5.3-4.2 9.7-8.7 11.4-14.4-3.3 1.8-15.8 7.9-16.5 6.3-6.4-12.8-49.5-14-44.4 23.8z"/></symbol><symbol id="close-icon" viewBox="0 0 196 196"><path fill="#010101" d="M30.754 6.847l158.463 158.462-23.908 23.908L6.847 30.754z"/><path fill="#010101" d="M189.153 30.754L30.691 189.217 6.783 165.309 165.246 6.847z"/></symbol><symbol id="youtube-icon" viewBox="0 0 196 196"><rect width="191.3" height="140.17" x="2.3" y="27.9" fill="#010101" rx="34"/><path fill="#fff" d="M132.2 98L98 117.7l-34.2 19.8v-79L98 78.3 132.2 98z"/></symbol><symbol id="star-icon" viewBox="0 0 196 196"><path fill="#010101" d="M98 8.5l29.1 58.9 65 9.5-47 45.8 11.1 64.8L98 156.9l-58.2 30.6 11.1-64.8-47-45.8 65-9.5L98 8.5z"/></symbol><symbol id="shell-round-icon" viewBox="0 0 196 196"><path fill="#010101" d="M119.6 155.5s26.1-45.1 7.1-71.9-49.7-34-76.6-19.8-16.5 52.1-7 61.4c7.6 7.5 31.8 22.3 49.9 2.1 15.1-16.9 9.5-33.9 2.7-36.9-33.7-14.8-32.2 10.5-32.2 10.5-3.1-12.6 36.4-19.7 28.5 11.9S16.1 116 50.9 77.2s75.8 7.9 75.1 31.2-23.8 72.3-70.4 61.3-53.7-49-47.4-95.6S84.9 7.7 141.8 29.8s47.4 113.8 47.4 113.8-31.7 22.9-69.6 11.9z"/></symbol><symbol id="cart-icon" viewBox="0 0 196 196"><path fill="#010101" d="M139.2 99.7H29.3L6 58.3h133.2v41.4zM29.3 112.5h128.6v18.87H29.3z"/><path fill="#010101" d="M152.4 26.7h16.2v104.67h-16.2z"/><path fill="#010101" d="M152.4 26.7H190v13.59h-37.6z"/><circle cx="74.3" cy="154.3" r="15" fill="#010101"/><circle cx="125.2" cy="154.3" r="15" fill="#010101"/></symbol><symbol id="heart-icon" viewBox="0 0 196 196"><path fill="#010101" d="M14.3 69.8C15.8 14.9 79.5 8 98 43.8v-7.2C77.1-3.9 5 4 3.3 66.1S98 184.4 98 184.4v-10S12.9 124.7 14.3 69.8zm178.4-3.7C191 4 118.9-3.9 98 36.6v7.2c18.5-35.8 82.2-28.9 83.7 26S98 174.4 98 174.4v10s96.3-56.2 94.7-118.3z"/></symbol><symbol id="facebook-icon" viewBox="0 0 196 196"><rect width="190.2" height="190.19" x="2.9" y="2.9" fill="#010101" rx="36.7"/><path fill="#fff" d="M82.2 161.5h23.7V98.1h21.9l1.9-23.8h-23.8v-8.8s.3-7.1 8.6-7.1h15.2V34.7h-20.1s-26.9-3.4-27.4 24.4v15.2H66.3v23.8h15.9z"/></symbol><symbol id="instagram-icon" viewBox="0 0 196 196"><path fill="#010101" d="M138.5 2.9h-81A54.7 54.7 0 0 0 2.9 57.5v81a54.7 54.7 0 0 0 54.6 54.6h81a54.7 54.7 0 0 0 54.6-54.6v-81a54.7 54.7 0 0 0-54.6-54.6zM176 135.7a40.4 40.4 0 0 1-40.3 40.3H60.3A40.4 40.4 0 0 1 20 135.7V60.3A40.4 40.4 0 0 1 60.3 20h75.4A40.4 40.4 0 0 1 176 60.3z"/><path fill="#010101" d="M98 47.2A50.8 50.8 0 1 0 148.8 98 50.9 50.9 0 0 0 98 47.2zm0 84.2A33.4 33.4 0 1 1 131.4 98 33.3 33.3 0 0 1 98 131.4z"/><circle cx="148.8" cy="47.2" r="11.4" fill="#010101"/></symbol><symbol id="nav-icon" viewBox="0 0 196 196"><path fill="#010101" d="M3.3 24.7h189.4v20.32H3.3zm0 63.1h189.4v20.32H3.3zm0 63.2h189.4v20.32H3.3z"/></symbol><symbol id="shell-fan-icon" viewBox="0 0 196 196"><path fill="#010101" d="M95.9 168.5L79.8 28.9A16.2 16.2 0 0 1 95.9 11a16.1 16.1 0 0 1 16 17.9zm0 0L45.7 43.3c-3.4-8.6 1.7-18.3 11-20.8S75.3 25.8 76.6 35zm0 0L20 69.2c-5.2-6.8-2.4-17 5.9-21.8 8.4-4.8 18.6-2.1 21.8 5.8zm0 0L9 100.2c-6-4.7-6.3-13.7-.7-19.3 5.5-5.5 14.5-5.2 19.2.8zm0 0l-84.1-35.6c-5.8-2.4-7.9-9.7-4.5-15.5 3.4-5.9 10.7-7.7 15.7-3.9zm0 0L25 158.9c-4.8-.7-7.8-5.9-6.4-11.1 1.4-5.2 6.6-8.2 11.1-6.3zm0 0l67.7-27.2c4.6-1.9 9.9 1 11.3 6.1 1.3 5.1-1.8 10.1-6.8 10.8zm0 0L168 77.7a13.2 13.2 0 0 1 19.8-1.1 13.2 13.2 0 0 1-1.1 19.7zm0 0l48.8-116.6c3.4-8 13.6-10.8 22-6 8.3 4.8 11 15.1 5.8 22zm0 0l19.4-134.3c1.3-9.2 10.6-15.1 19.9-12.6 9.3 2.5 14.4 12.3 11 20.9z"/><path fill="#010101" d="M71.7 172.1l-9.1-9.1 33.3-16.6 33.2 16.6-9.1 9.1a34.2 34.2 0 0 1-48.3 0z"/><path fill="#010101" d="M95.9 168.5l72.5-55.2c5-3.8 12.4-1.8 15.8 4.2 3.5 6 1.5 13.4-4.3 15.8z"/></symbol><symbol id="shell-spiral-icon" viewBox="0 0 196 196"><path fill="#010101" d="M4.5 99.8s41.9-80.6 116.6-44.5c33.6 35.3 45.4 68 42 73.9S65.7 204.8 4.5 99.8z"/><path fill="#010101" d="M123.3 55.3L143 50s32.5 11.3 35.1 55.6c-4.1 5.6-11.4 19.1-11.4 19.1s-12.2-50.2-43.4-69.4z"/><path fill="#010101" d="M149.2 50h17.7s19.7 10.7 18.9 31.9c-1.3 2.7-4.1 16.8-4.1 16.8s-3.6-33.4-32.5-48.7zm24.4.7s16-.8 17.5-.2-1.4 20.7-2.1 21.5c-2.8-2.8-8.5-14.1-15.4-21.3z"/></symbol></svg>