<svg xmlns="http://www.w3.org/2000/svg" width="86.4" height="86.4" viewBox="0 0 64 64"><path fill="#c6e8ee" d="M33.8 39.2a7.6 7.6 0 1 0-10.7-10.7l4.6 4.6m6.1 6.1a11.3 11.3 0 1 1-16-16m0 0a16.9 16.9 0 0 1 23.9 23.9m0 0A23.2 23.2 0 0 1 9 14.3"/><path fill="#c6e8ee" d="M9 14.3a30.9 30.9 0 0 1 43.7 43.8L46.6 52"/><path fill="#549fd2" d="M34.9 40.2l-2.1-2.1a6.1 6.1 0 0 0 1.7-4.3 6.3 6.3 0 0 0-1.7-4.3 6.3 6.3 0 0 0-4.3-1.7 6.5 6.5 0 0 0-3.1.8l3.4 3.4-2.2 2.1-5.6-5.6 1.1-1.1a8.8 8.8 0 0 1 6.4-2.6 8.9 8.9 0 0 1 9 9 8.8 8.8 0 0 1-2.6 6.4z"/><path fill="#549fd2" d="M25.8 44a12.7 12.7 0 0 1-9-3.8 12.8 12.8 0 0 1 0-18.1l2.1 2.2a9.8 9.8 0 0 0 0 13.8 9.9 9.9 0 0 0 13.9 0l2.1 2.1a12.9 12.9 0 0 1-9.1 3.8z"/><path fill="#549fd2" d="M42.8 48.1L40.6 46a15.4 15.4 0 0 0 4.5-10.9 15.4 15.4 0 0 0-15.3-15.3 15.4 15.4 0 0 0-10.9 4.5l-2.1-2.2a18.3 18.3 0 0 1 26 0 18.6 18.6 0 0 1 0 26z"/><path fill="#549fd2" d="M25.3 55.3a24.6 24.6 0 0 1-17.4-42l2.1 2.1A21.6 21.6 0 0 0 40.6 46l2.2 2.1a24.8 24.8 0 0 1-17.5 7.2z"/><path fill="#549fd2" d="M52.7 60.2L45.6 53l2.1-2.1 5 5A29.4 29.4 0 0 0 10 15.4l-2.1-2.1a32.5 32.5 0 0 1 45.9 45.9z"/></svg>