<svg xmlns="http://www.w3.org/2000/svg" width="38.4" height="38.4" viewBox="0 0 32 32"><path fill="#c6e8ee" d="M16.9 19.6a3.8 3.8 0 0 0 0-5.4 3.9 3.9 0 0 0-5.3 0l2.3 2.3m3 3.1a5.7 5.7 0 1 1-8-8m0 0a8.4 8.4 0 0 1 11.9 11.9m0 0A11.5 11.5 0 0 1 4.5 7.2"/><path fill="#c6e8ee" d="M4.5 7.2a15.4 15.4 0 0 1 21.9 0 15.6 15.6 0 0 1 0 21.9L23.3 26"/><path fill="#549fd2" d="M17.4 20.1l-1-1a3.6 3.6 0 0 0 .9-2.2 3.1 3.1 0 0 0-3.1-3 2.8 2.8 0 0 0-1.5.4l1.7 1.7-1.1 1.1-2.8-2.9.5-.5a4.8 4.8 0 0 1 3.2-1.3 4.6 4.6 0 0 1 3.2 1.3 4.5 4.5 0 0 1 1.4 3.2 4.3 4.3 0 0 1-1.4 3.2z"/><path fill="#549fd2" d="M12.9 22a6.1 6.1 0 0 1-4.5-1.9 6.3 6.3 0 0 1 0-9l1.1 1a4.8 4.8 0 0 0 0 7 4.9 4.9 0 0 0 6.9 0l1 1a6 6 0 0 1-4.5 1.9z"/><path fill="#549fd2" d="M21.4 24.1L20.3 23a7.6 7.6 0 0 0 0-10.9 7.7 7.7 0 0 0-5.4-2.2 7.6 7.6 0 0 0-5.4 2.2l-1.1-1a8.8 8.8 0 0 1 6.5-2.7 9.2 9.2 0 0 1 9.2 9.2 9.5 9.5 0 0 1-2.7 6.5z"/><path fill="#549fd2" d="M12.7 27.7A12.2 12.2 0 0 1 4 24.1 12.3 12.3 0 0 1 4 6.6l1 1.1A10.8 10.8 0 0 0 20.3 23l1.1 1.1a12.4 12.4 0 0 1-8.7 3.6z"/><path fill="#549fd2" d="M26.4 30.1l-3.6-3.6 1-1 2.6 2.5A14.8 14.8 0 0 0 5 7.7L4 6.6a16.2 16.2 0 0 1 22.9 0 16.4 16.4 0 0 1 0 23z"/></svg>