<svg xmlns="http://www.w3.org/2000/svg" width="3.6in" height="3.6in" viewBox="0 0 256 256"><path fill="#c6e8ee" d="M135.4 157a30.6 30.6 0 0 0-43.3-43.2l18.6 18.5m24.7 24.7a45.7 45.7 0 0 1-64.7-64.6m0 0a68.3 68.3 0 0 1 96.6 96.5m0 0A93.7 93.7 0 0 1 34.8 56.5"/><path fill="#c6e8ee" d="M34.8 56.5A125.3 125.3 0 0 1 212 233.7l-24.8-24.8"/><path fill="#549fd2" d="M139.7 161.4l-8.7-8.7a24.5 24.5 0 0 0-17.3-41.8 24.3 24.3 0 0 0-12.4 3.4L115 128l-8.7 8.6-22.9-22.8 4.4-4.4a36.4 36.4 0 0 1 25.9-10.7 36.8 36.8 0 0 1 26 62.7z"/><path fill="#549fd2" d="M103 176.5A51.8 51.8 0 0 1 66.4 88l8.6 8.7a39.6 39.6 0 0 0 56 56l8.7 8.7a51.7 51.7 0 0 1-36.7 15.1z"/><path fill="#549fd2" d="M171.6 193.2l-8.7-8.6A62.2 62.2 0 0 0 75 96.7L66.4 88a74.4 74.4 0 1 1 105.2 105.2z"/><path fill="#549fd2" d="M101 222.4A99.8 99.8 0 0 1 30.5 52.1l8.6 8.7a87.5 87.5 0 0 0 123.8 123.8l8.7 8.6a99.4 99.4 0 0 1-70.6 29.2z"/><path fill="#549fd2" d="M212 242.3l-29.1-29.1 8.6-8.7 20.4 20.4A119.2 119.2 0 0 0 39.1 60.8l-8.6-8.7C81.7.9 165.1.9 216.3 52.1a131.7 131.7 0 0 1 0 185.9z"/></svg>