<svg xmlns="http://www.w3.org/2000/svg" width="19.2" height="19.2" viewBox="0 0 16 16"><path fill="#c6e8ee" d="M8.4 9.8a1.8 1.8 0 0 0 0-2.7 1.9 1.9 0 0 0-2.6 0l1.1 1.2"/><path fill="#c6e8ee" d="M8.4 9.8a2.7 2.7 0 0 1-3.9 0 2.8 2.8 0 0 1 0-4m0 0a4.2 4.2 0 0 1 5.9 0 4.2 4.2 0 0 1 0 5.9"/><path fill="#c6e8ee" d="M10.4 11.7a5.8 5.8 0 0 1-8.1 0 5.8 5.8 0 0 1 0-8.1"/><path fill="#c6e8ee" d="M2.3 3.6a7.8 7.8 0 0 1 10.8 0 7.6 7.6 0 0 1 0 10.8l-1.5-1.5"/><path fill="#549fd2" d="M8.7 10l-.5-.5a1.4 1.4 0 0 0 .4-1 1.5 1.5 0 0 0-.4-1.1A1.5 1.5 0 0 0 7.1 7a1 1 0 0 0-.7.2l.8.8-.5.5-1.4-1.4.3-.2a1.8 1.8 0 0 1 1.5-.7 2 2 0 0 1 1.6.7 2.4 2.4 0 0 1 .7 1.6 2.3 2.3 0 0 1-.7 1.5z"/><path fill="#549fd2" d="M6.5 11a3.7 3.7 0 0 1-2.3-1 3.1 3.1 0 0 1 0-4.4l.6.5a2.3 2.3 0 0 0 0 3.4 2.5 2.5 0 0 0 3.4 0l.5.5a3.2 3.2 0 0 1-2.2 1z"/><path fill="#549fd2" d="M10.7 12l-.6-.6a3.6 3.6 0 0 0 1.1-2.6 3.9 3.9 0 0 0-1.1-2.7A3.6 3.6 0 0 0 7.5 5a3.7 3.7 0 0 0-2.7 1.1l-.6-.5a4.5 4.5 0 0 1 3.3-1.4 4.5 4.5 0 0 1 3.2 1.4A4.6 4.6 0 0 1 12 8.8a4.8 4.8 0 0 1-1.3 3.2z"/><path fill="#549fd2" d="M6.4 13.7A5.7 5.7 0 0 1 2.1 12a6 6 0 0 1 0-8.6l.5.5a5.3 5.3 0 0 0 0 7.5 5.3 5.3 0 0 0 7.5 0l.6.6a6 6 0 0 1-4.3 1.7z"/><path fill="#549fd2" d="M13.1 15l-1.8-1.8.6-.5 1.2 1.2a7.2 7.2 0 0 0-.3-10 7.2 7.2 0 0 0-10.2 0l-.5-.5a8 8 0 0 1 11.3 11.3z"/></svg>